<svg width="1331" height="1024" xmlns="http://www.w3.org/2000/svg" class="icon"><defs><style/></defs><path fill="none" id="canvas_background" d="M-1-1h1662v770H-1z"/><path id="svg_1" fill="#E3F0FF" d="M1065.152 539.277c0 251.353-203.11 455.117-453.683 455.117-250.56 0-453.683-203.764-453.683-455.117 0-251.354 203.123-455.104 453.683-455.104 250.573 0 453.683 203.75 453.683 455.104"/><path id="svg_2" fill="#FFF" d="M129.37 994.38c-10.228-5.414-79.872-43.903-85.03-90.47a6.029 6.029 0 00-.474-1.74c-9.319-21.376-9.818-41.908-1.472-61.056 19.993-45.94 84.147-71.143 92.57-74.279h578.623c-74.65 113.92-22.029 193.6 3.034 221.709l-587.251 5.837z"/><path id="svg_3" fill="#5D99FE" d="M724.89 760.845H133.914S-3.392 808.755 38.4 904.576c5.965 53.888 89.549 95.82 89.549 95.82l595.136-5.913a3.149 3.149 0 002.24-5.337c-20.621-21.172-87.59-104.845-.435-228.288v-.013zm-22.144 11.993c-29.684 48.96-39.68 96.999-29.722 143.053a169.14 169.14 0 0031.014 66.803l-573.21 5.696a270.4 270.4 0 01-38.322-25.344c-17.818-14.22-39.616-36.147-42.24-59.788a11.968 11.968 0 00-.935-3.482c-8.73-20.02-9.216-38.4-1.497-56.192 18.355-42.24 77.196-66.522 88.217-70.746h566.695z"/><path id="svg_4" fill="#C5DDFF" d="M727.872 775.808l-565.376-2.982c-71.526 0-112.154 47.155-112.154 104.793 0 57.639 40.628 104.794 112.154 104.794h565.376v18.944a13.952 13.952 0 01-13.926 13.99h-565.12c-75.508 0-137.293-61.977-137.293-137.728s61.785-137.728 137.305-137.728h568.704c5.71 0 10.33 4.634 10.33 10.368v25.562-.013z"/><path id="svg_5" fill="#5D99FE" d="M148.838 745.882c-72.422 0-131.328 59.097-131.328 131.737s58.906 131.738 131.328 131.738h565.108c4.39 0 7.961-3.584 7.961-7.987v-12.967H162.496c-69.542 0-118.131-45.555-118.131-110.784 0-65.229 48.589-110.784 118.144-110.784l559.398 2.97v-19.546a4.378 4.378 0 00-4.352-4.377h-568.73.013zm565.095 275.456h-565.12c-78.95 0-143.245-64.474-143.245-143.719 0-79.232 64.269-143.718 143.27-143.718h568.704c8.986 0 16.308 7.334 16.308 16.358v31.578l-571.38-3.021c-63.488 0-106.163 39.706-106.163 98.816 0 59.085 42.675 98.79 106.189 98.79H733.85v24.948c0 11.008-8.935 19.968-19.904 19.968h-.013z"/><path id="svg_6" fill="#5D99FE" d="M145.856 847.68H683.11V835.7H145.856v11.98zm0 71.86H683.11v-11.982H145.856v11.981z"/><path id="svg_7" fill="#48D2A2" d="M220.48 841.69v104.793l59.686-30.822 53.722 30.822V841.69H220.48z"/><path id="svg_8" fill="#5D99FE" d="M226.445 847.68v88.986l53.875-27.815 47.603 27.315V847.68H226.445zm113.408 109.133l-59.84-34.33-65.51 33.818V835.699h125.363v121.114h-.013zM935.82 155.392c-137.267 0-250.663 113.754-250.663 251.456 0 98.79 53.71 185.6 140.25 227.494v98.79c0 30.44 18.253 55.374 44.762 64.794v19.021c0 23.949 20.89 44.903 44.761 44.903h38.784c23.885 0 44.775-17.959 44.775-44.903v-18.995c26.624-9.408 45.401-34.355 47.744-64.806v-98.79c83.558-41.908 140.25-131.713 140.25-227.495 0-137.703-113.396-251.456-250.663-251.456"/><path id="svg_9" fill="#C5DDFF" d="M986.112 779.174h-100.57c-22.348 0-40.985-18.688-40.985-41.113v-52.314h182.54v52.314c0 22.425-18.623 41.113-40.985 41.113m-26.266 61.837h-51.008c-11.763 0-19.596-11.814-19.596-19.673v-19.674h90.214v19.674c0 11.801-11.776 19.673-19.61 19.673"/><path id="svg_10" fill="#FFF" d="M1027.098 618.854v50.906h-75.482V552.064l63.424-104.973a20.378 20.378 0 000-19.085c-3.174-6.374-9.523-9.548-15.872-9.548h-130.01c-6.348 0-12.684 3.174-15.859 9.548a20.3 20.3 0 000 19.072l60.378 99.943a14.848 14.848 0 00-.128 1.869v120.883h-68.967v-51.879C758.95 582.9 707.418 501.171 707.418 408.91c0-127.232 101.478-229.043 228.326-229.043 123.686 0 228.34 101.798 231.514 229.043 0 92.262-54.528 174.976-140.148 209.958"/><path id="svg_11" fill="#FFF" d="M934.232 492.886l-46.758-75.033h93.504l-46.746 75.033z"/><path id="svg_12" fill="#5D99FE" d="M1148.314 184.768c-5.543 0-8.32-2.765-11.085-5.542-5.53-5.556-5.53-16.653 0-22.208l47.04-49.972c5.542-5.555 16.614-5.555 22.144 0 5.53 5.556 5.53 16.653 0 22.208l-49.792 49.972c0 2.777-5.555 5.542-8.32 5.542m-431.693-2.765c-5.542 0-8.307 0-11.072-2.777l-49.818-49.972c-8.294-5.555-8.294-16.652-2.764-22.208 8.307-5.555 16.601-8.32 24.908 0l49.805 47.194c5.543 5.555 8.32 16.653 0 22.208-2.765 5.555-8.294 5.555-11.059 5.555m597.722 191.54h-69.184c-8.295 0-16.602-8.32-16.602-16.653 0-8.32 8.307-16.666 16.602-16.666h69.184c8.294 0 16.601 8.333 16.601 16.666 0 8.32-8.307 16.64-16.601 16.64M929.69 109.824c-8.32 0-16.615-8.32-16.615-16.666V23.77c0-8.32 8.307-16.653 16.615-16.653 8.294 0 16.601 8.32 16.601 16.64v69.401c0 8.333-8.307 16.666-16.601 16.666M608.666 373.542h-69.172c-8.307 0-16.601-8.32-16.601-16.652 0-8.32 8.294-16.666 16.601-16.666h69.184c8.295 0 16.602 8.333 16.602 16.666 0 8.32-8.307 16.64-16.602 16.64"/><path id="svg_13" fill="#C5DDFF" d="M523.686 274.138L298.074 642.61l-85.428-52.633 225.626-368.474a14.208 14.208 0 0119.507-4.672l61.261 37.747c6.656 4.096 8.742 12.89 4.66 19.559"/><path id="svg_14" fill="#5D99FE" d="M220.864 588.006l75.251 46.362 222.49-363.366a8.192 8.192 0 00.973-6.221 8.18 8.18 0 00-3.674-5.095l-61.26-37.76a8.205 8.205 0 00-11.29 2.714l-222.49 363.366zm77.21 60.596a5.94 5.94 0 01-3.124-.896l-85.427-52.621a6.016 6.016 0 01-1.971-8.243l225.626-368.474a20.147 20.147 0 0127.712-6.643l61.26 37.76c4.57 2.816 7.783 7.257 9.037 12.518a20.202 20.202 0 01-2.406 15.27L303.168 645.748a5.965 5.965 0 01-5.094 2.855z"/><path id="svg_15" fill="#5D99FE" d="M491.712 326.374l-85.427-52.646 6.246-10.202 85.427 52.634-6.246 10.214z"/><path id="svg_16" fill="#FFF" d="M211.507 699.917l1.14-109.94 85.427 52.634-86.567 57.306z"/><path id="svg_17" fill="#5D99FE" d="M218.509 600.614l-.896 88.103 69.35-45.927-68.454-42.176zm-7.002 105.293a5.965 5.965 0 01-5.965-6.054l1.152-109.952a5.99 5.99 0 019.088-5.03l85.428 52.633a6.003 6.003 0 01.153 10.112l-86.566 57.293a5.94 5.94 0 01-3.29.998z"/><path id="svg_18" fill="#A9D4FF" d="M523.686 274.138L298.074 642.61l-42.714-26.317 225.626-368.486a14.195 14.195 0 0119.481-4.672l18.56 11.43c6.656 4.096 8.743 12.89 4.66 19.559"/><path id="svg_19" fill="#5D99FE" d="M263.565 614.323l32.55 20.045 222.49-363.366a8.205 8.205 0 00.973-6.221 8.192 8.192 0 00-3.674-5.095l-18.56-11.443a8.218 8.218 0 00-11.277 2.714L263.552 614.323h.013zm34.496 34.279a5.978 5.978 0 01-3.123-.896l-42.714-26.317a6.003 6.003 0 01-1.971-8.23l225.651-368.474a20.147 20.147 0 0127.712-6.643l18.56 11.443c4.557 2.803 7.77 7.257 9.024 12.518 1.254 5.248.384 10.675-2.406 15.27L303.168 645.748a5.978 5.978 0 01-5.094 2.855h-.013z"/><path id="svg_20" fill="#FFF" d="M523.686 274.138l-32.128 52.48-85.427-52.621 32.128-52.493a14.208 14.208 0 0119.507-4.672l61.261 37.747c6.656 4.096 8.743 12.89 4.66 19.559"/><path id="svg_21" fill="#5D99FE" d="M414.336 272.026l75.251 46.361 29.018-47.385a8.205 8.205 0 00.973-6.208 8.166 8.166 0 00-3.674-5.12l-61.26-37.748a8.218 8.218 0 00-11.29 2.714l-29.018 47.386zm77.222 60.582a5.94 5.94 0 01-3.123-.883l-85.427-52.634a6.016 6.016 0 01-1.971-8.243l32.128-52.48a20.147 20.147 0 0127.725-6.643l61.273 37.76c4.557 2.816 7.77 7.257 9.024 12.518a20.202 20.202 0 01-2.406 15.27l-32.128 52.48a6.003 6.003 0 01-5.095 2.855z"/><path id="svg_22" fill="#E3F0FF" d="M784.691 881.088h305.255a38.515 38.515 0 0138.336 38.451 38.515 38.515 0 01-38.336 38.451H784.69a38.515 38.515 0 01-38.336-38.45 38.515 38.515 0 0138.336-38.452M46.848 145.254H352.09a38.515 38.515 0 0138.336 38.464 38.502 38.502 0 01-38.336 38.452H46.835A38.502 38.502 0 018.5 183.718a38.515 38.515 0 0138.336-38.464m64.487 169.088h95.475a33.28 33.28 0 0133.126 33.23 33.28 33.28 0 01-33.126 33.228H111.31a33.28 33.28 0 01-33.114-33.229 33.28 33.28 0 0133.127-33.229"/></svg>