<svg width="1024" height="1024" xmlns="http://www.w3.org/2000/svg" class="icon"><defs><style/></defs><path fill="none" id="canvas_background" d="M-1-1h1662v770H-1z"/><g fill="#fff"><path id="svg_1" d="M901.12 680.96s-5.12 0-5.12-5.12L711.68 491.52l153.6-220.16 5.12-5.12c10.24-10.24 10.24-30.72 0-40.96-35.84-40.96-81.92-76.8-138.24-97.28-51.2-25.6-112.64-35.84-168.96-35.84-56.32 0-112.64 10.24-163.84 35.84-56.32 25.6-102.4 56.32-138.24 97.28-5.12 5.12-10.24 15.36-10.24 20.48 0 10.24 5.12 20.48 10.24 25.6 5.12 5.12 15.36 10.24 20.48 10.24 10.24 0 15.36-5.12 20.48-10.24 66.56-71.68 153.6-107.52 250.88-107.52 87.04 0 174.08 35.84 240.64 92.16L634.88 481.28c-10.24 15.36-10.24 30.72 5.12 46.08L834.56 716.8C768 803.84 665.6 855.04 552.96 855.04c-189.44 0-348.16-153.6-348.16-348.16 0-20.48 0-40.96 5.12-61.44 0-10.24 0-15.36-5.12-25.6 0-5.12-5.12-10.24-15.36-10.24-10.24 0-15.36 0-25.6 5.12-5.12 5.12-10.24 15.36-10.24 20.48-5.12 25.6-5.12 51.2-5.12 71.68 0 56.32 10.24 107.52 30.72 158.72 20.48 51.2 51.2 92.16 87.04 133.12 40.96 40.96 81.92 71.68 133.12 92.16 51.2 20.48 107.52 30.72 158.72 30.72 71.68 0 143.36-20.48 204.8-51.2 56.32-30.72 102.4-71.68 138.24-122.88 5.12 0 5.12-5.12 5.12-5.12 5.12-5.12 10.24-15.36 10.24-25.6 0-15.36-5.12-25.6-15.36-35.84z"/><path id="svg_2" d="M665.6 302.08c0-51.2-35.84-87.04-87.04-87.04-46.08 0-87.04 40.96-87.04 87.04s35.84 87.04 87.04 87.04c46.08 0 87.04-40.96 87.04-87.04zm-66.56 0c0 10.24-10.24 20.48-20.48 20.48s-20.48-10.24-20.48-20.48 10.24-20.48 20.48-20.48c10.24-5.12 20.48 5.12 20.48 20.48z"/></g></svg>