<svg width="1024" height="1024" xmlns="http://www.w3.org/2000/svg" class="icon"><defs><style/></defs><path fill="none" id="canvas_background" d="M-1-1h1662v770H-1z"/><g fill="#fff"><path id="svg_1" d="M359.963 831.11a49.071 49.071 0 01-68.23-11.6 48.734 48.734 0 01-9.015-27.918v-64.916h-63.393c-26.975 0-48.883-21.773-48.883-48.6v-452.31c0-26.814 21.908-48.587 48.883-48.587h585.35c26.988 0 48.883 21.746 48.883 48.6v452.298c0 26.812-21.895 48.559-48.883 48.559H507.42L359.963 831.11zM230.777 250.814v402.19a13.474 13.474 0 0013.474 13.473h85.329a13.474 13.474 0 0113.473 13.473v76.356a6.737 6.737 0 0010.618 5.497l128.35-90.408a26.947 26.947 0 0115.522-4.918h282.206a13.474 13.474 0 0013.474-13.474v-402.19a13.474 13.474 0 00-13.474-13.473H244.251a13.474 13.474 0 00-13.474 13.474z"/><path id="svg_2" d="M595.806 390.198c0 19.025-6.642 34.493-20.614 52.951l-29.939 39.654c-3.678 4.77-6.44 12.436-6.44 18.149v12.53H478.18v-16.168c0-17.435 4.487-29.184 16.209-44.517l29.885-38.373c6.965-9.136 10.9-17.651 10.9-24.63 0-17.327-11.264-29.103-28.7-29.103-17.865 0-28.294 11.695-28.294 29.507v4.042h-60.63v-4.042c0-50.553 37.808-84.884 88.927-84.884 50.917 0 89.33 33.953 89.33 84.884zm-51.334 179.065c0 19.55-16.304 35.57-35.975 35.57a35.611 35.611 0 01-35.57-35.57c0-19.671 16.02-35.975 35.57-35.975 19.618 0 35.975 16.357 35.975 35.975z"/></g></svg>