<svg width="1024" height="1024" xmlns="http://www.w3.org/2000/svg" class="icon"><defs><style/></defs><path fill="none" id="canvas_background" d="M-1-1h582v402H-1z"/><g fill="#fff"><path id="svg_1" d="M653.568 268.237c-18.15 0-33.715-4.045-46.643-12.211a103.885 103.885 0 01-31.744-30.183 135.424 135.424 0 01-18.023-39.45 151.424 151.424 0 01-5.81-39.884V24.653h-373.12c-14.926 0-29.262 4.045-42.88 12.16a156.416 156.416 0 00-36.506 30.259 142.285 142.285 0 00-25.216 40.346c-6.196 14.95-9.268 29.184-9.268 42.88v663.347c0 16.307 4.25 32.051 12.647 47.36a165.427 165.427 0 0031.693 40.371 174.925 174.925 0 0040.857 28.211c14.669 7.066 28.083 10.778 40.448 10.778H458.83l188.953-196.813c-9.702 7.757-21.708 11.597-35.942 11.597h-365.39c-16.896 0-31.13-5.735-42.88-17.46a58.163 58.163 0 01-17.536-42.803c0-16.896 5.811-31.36 17.536-43.366a57.523 57.523 0 0142.88-18.022h365.363c16.82 0 31.207 5.99 43.213 18.022s18.023 26.47 18.023 43.366c0 12.212-3.508 23.604-10.624 34.048l133.376-138.393V268.237H653.568zm1.562 225.971a60.032 60.032 0 01-43.29 17.46H246.451c-16.896 0-31.206-5.812-42.88-17.46a58.42 58.42 0 01-17.536-42.88c0-16.896 5.863-31.283 17.536-43.366a57.6 57.6 0 0142.88-17.997h365.363c16.82 0 31.284 5.99 43.29 17.997a59.136 59.136 0 0117.997 43.366 57.446 57.446 0 01-17.971 42.88z"/><path id="svg_2" d="M955.674 664.653a90.06 90.06 0 00-17.204-25.856c-7.526-8.141-14.438-13.747-20.94-17.024-5.863-3.277-13.261-5.325-22.4-6.272-9.088-1.05-17.613 1.997-25.268 9.113-3.276 2.714-7.321 6.298-12.236 10.778-4.813 4.454-9.14 8.448-13.133 11.725l82.816 81.817c2.022-1.408 4.326-3.276 6.86-5.862 1.997-2.048 4.301-4.352 6.836-7.347 2.662-2.842 5.58-5.99 8.806-9.14 7.194-7.193 10.394-14.694 9.78-22.476a79.77 79.77 0 00-3.917-19.456zM622.515 181.504c3.2 6.502 7.296 12.134 12.16 17.05a24.474 24.474 0 0018.074 7.347v-.077h143.078v-15.59c0-3.917-.537-8.448-1.945-13.62-1.255-5.248-4.608-11.596-10.19-18.995a271.488 271.488 0 00-23.91-27.29 843.264 843.264 0 00-41.804-39.449 1386.957 1386.957 0 00-40.5-34.509 332.774 332.774 0 00-27.238-20.454c-7.475-4.89-13.824-7.962-18.995-9.293a66.944 66.944 0 00-16.589-1.946h-1.946v119.834c0 4.531.82 10.189 2.51 17.05 1.56 6.81 3.993 13.44 7.295 19.942zm95.514 591.18a3085.328 3085.328 0 00-35.098 35.636 2406.912 2406.912 0 01-32.205 32.589l-24.37 24.448-12.57 12.697c-6.554 6.4-11.725 13.901-15.693 22.272a173.62 173.62 0 00-5.376 14.72l-7.27 22.912c-2.586 8.039-4.865 16-6.861 23.91a228.685 228.685 0 00-3.892 17.46c-1.254 7.757-.614 13.338 1.946 16.614 2.662 3.124 7.91 4.122 15.642 2.868 3.89-.59 9.779-1.972 17.536-3.994 7.833-1.792 15.923-4.096 24.37-6.86 8.372-2.458 16.692-5.3 24.935-8.244 8.09-2.893 14.106-5.3 18.023-7.296 3.968-1.946 7.756-4.403 11.699-7.27l10.7-8.32c.64-.59 4.045-4.173 10.19-10.599 6.195-6.707 13.747-14.31 22.86-23.45l32.18-32.204 35.046-35.047 94.566-94.54-81.843-81.844a13977.293 13977.293 0 00-94.515 93.543z"/></g></svg>