<svg width="1024" height="1024" xmlns="http://www.w3.org/2000/svg" class="icon"><defs><style/></defs><path fill="none" id="canvas_background" d="M-1-1h1662v770H-1z"/><g fill="#fff"><path id="svg_2" d="M1024 410.624V273.408c0-31.744-26.624-58.368-58.368-58.368H214.016c-31.744 0-58.368 26.624-58.368 58.368v137.216H1024zM819.2 572.416c-5.12-1.024-15.36-2.043-29.696-2.043h-61.44v86.021h62.464c20.48 0 34.816-4.1 44.032-11.264 8.192-8.197 13.312-18.437 13.312-32.763 0-10.24-2.038-18.437-7.158-25.6-6.154-7.183-12.298-12.303-21.514-14.351z"/><path id="svg_3" d="M155.648 452.608v375.808c0 31.744 26.624 58.368 58.368 58.368h751.616c31.744 0 58.368-26.624 58.368-58.368V452.608H155.648zM424.96 782.336h-32.768l-93.184-241.664h34.816L396.288 716.8c5.12 14.336 9.216 27.648 12.288 39.936 4.096-13.312 8.192-26.624 13.312-39.936l65.536-175.104h32.763l-95.227 240.64zm188.416 0h-31.744v-240.64h31.744v240.64zm247.808-118.784c-13.317 14.341-36.864 21.504-70.656 21.504h-61.44v98.304H696.32V541.696h91.136c16.384 0 28.677 1.024 36.864 2.048 12.288 2.043 21.504 6.144 29.696 11.264 8.197 5.12 14.336 13.312 19.456 23.552s7.168 20.48 7.168 32.768c0 20.48-7.168 37.888-19.456 52.224z"/></g></svg>