<svg width="1024" height="1024" xmlns="http://www.w3.org/2000/svg" class="icon"><defs><style/></defs><path fill="none" id="canvas_background" d="M-1-1h1662v770H-1z"/><g fill="#fff"><path id="svg_1" d="M686.933 309.333H761.6L661.333 204.8v78.933c0 14.934 10.667 25.6 25.6 25.6z"/><path id="svg_2" d="M667.733 364.8c-36.266 0-64-29.867-64-64V174.933H253.867L236.8 192v637.867l17.067 17.066H774.4l17.067-17.066V364.8H667.733zm8.534 345.6H373.333c-8.533 0-17.066-6.4-17.066-17.067s6.4-17.066 17.066-17.066h302.934c8.533 0 17.066 6.4 17.066 17.066S684.8 710.4 676.267 710.4zm0-121.6H373.333c-8.533 0-17.066-6.4-17.066-17.067s6.4-17.066 17.066-17.066h302.934c8.533 0 17.066 6.4 17.066 17.066S684.8 588.8 676.267 588.8zm0-121.6H373.333c-8.533 0-17.066-6.4-17.066-17.067s6.4-17.066 17.066-17.066h302.934c8.533 0 17.066 6.4 17.066 17.066S684.8 467.2 676.267 467.2z"/></g></svg>