<svg width="1024" height="1024" xmlns="http://www.w3.org/2000/svg" class="icon"><defs><style/></defs><path fill="none" id="canvas_background" d="M-1-1h582v402H-1z"/><g fill="#fff"><path id="svg_1" d="M512.3 873v38.9h40V873H606v-31.5h-53.6v-17.1H606v-31.5h-37.8l44.9-89.9h-43.9l-29.1 60.7c-3.3 7.1-5.9 13.8-7.7 20.1-1.5-5.8-4.1-12.5-7.7-20.1L496.2 703h-43.9l44.3 89.9h-37.2v31.5h52.9v17.1h-52.9V873h52.9zm307.9-223.5L794.6 816c-12.7 82.7-83.9 143.8-167.6 143.8H438.4c-83.7 0-154.8-61-167.6-143.8l-25.6-166.5h575zm9.5-61.7H235.8l-11.3-73.3H841l-11.3 73.3zM493.1 311.1h61.6v203.4h-61.6V311.1z"/><path id="svg_2" d="M415.5 421c-48.7 0-91.8-10.7-128.9-32.1-61-35.2-105.1-99.1-131.2-189.7l-9.5-33.2 33.3-8.9c92.8-24.9 170.9-19.6 232.1 15.8C472.5 208.3 516.1 273.2 541 366l8.9 33.3-33.5 8.3c-35.8 8.9-69.5 13.4-100.9 13.4zm-95-90.9c37.8 21.9 86.3 28.1 144.3 18.9-20.3-56.3-49.6-95.7-87.4-117.5-37.8-21.9-86.7-27.5-145.5-16.9 21.1 54.9 50.8 93.6 88.6 115.5z"/><path id="svg_3" d="M610.1 343.2c-31.4 0-65.1-4.4-101-13.4l-33.5-8.3 8.9-33.3c24.9-92.8 68.5-157.8 129.7-193.1 61.2-35.3 139.2-40.7 232.1-15.8l33.3 8.9-9.5 33.2c-26 90.7-70.2 154.5-131.2 189.8-37 21.3-80.1 32-128.8 32zm-49.3-71.9c58.1 9.4 106.5 2.9 144.3-18.9 37.8-21.9 67.5-60.6 88.6-115.6-58.9-10.5-107.7-4.9-145.5 17-37.8 21.8-67.1 61.2-87.4 117.5z"/><path id="svg_4" d="M722.1 281.7c53.4-30.8 91.9-87.4 115.6-169.7-84.2-22.6-153-18.4-206.4 12.4-53.4 30.8-91.4 88.3-113.9 172.6 83 20.6 151.3 15.6 204.7-15.3z"/><path id="svg_5" stroke-opacity="null" stroke-width="null" stroke="null" d="M373.5 678h297v242h-297z"/></g></svg>