<svg width="1024" height="1024" xmlns="http://www.w3.org/2000/svg" class="icon"><defs><style/></defs><path fill="none" id="canvas_background" d="M-1-1h1662v770H-1z"/><path id="svg_1" fill="#fff" d="M911.36 112.64C834.56 40.96 737.28 0 634.88 0S435.2 40.96 358.4 112.64c-71.68 76.8-112.64 174.08-112.64 276.48 0 87.04 25.6 163.84 76.8 230.4L256 686.08 97.28 527.36c-20.48-20.48-56.32-20.48-81.92 0-20.48 20.48-20.48 56.32 0 81.92L174.08 768l-61.44 61.44c-20.48 20.48-20.48 56.32 0 81.92s56.32 20.48 81.92 0L256 849.92l158.72 158.72c20.48 20.48 56.32 20.48 81.92 0 20.48-20.48 20.48-56.32 0-81.92L337.92 768l66.56-66.56c66.56 51.2 148.48 76.8 230.4 76.8 102.4 0 199.68-40.96 276.48-112.64C983.04 593.92 1024 496.64 1024 389.12c0-102.4-40.96-199.68-112.64-276.48zm-81.92 471.04c-51.2 51.2-122.88 81.92-194.56 81.92s-143.36-30.72-194.56-81.92S358.4 460.8 358.4 389.12s30.72-143.36 81.92-194.56 122.88-81.92 194.56-81.92 143.36 30.72 194.56 81.92 81.92 122.88 81.92 194.56-30.72 143.36-81.92 194.56z"/></svg>