<svg class="icon" viewBox="0 0 1024 1024" xmlns="http://www.w3.org/2000/svg" width="200" height="200"><defs><style/></defs><path d="M32 512a480 480 0 10960 0 480 480 0 10-960 0z" fill="#FFF"/><path d="M75.643 512a436.357 436.357 0 10872.714 0 436.357 436.357 0 10-872.714 0z" fill="#FDD231"/><path d="M86.077 607.317c43.482 195.15 217.666 341.04 425.88 341.04 241.002 0 436.367-195.365 436.367-436.357 0-208.257-145.89-382.441-341.04-425.923q1.078 16.46 1.078 33.188c0 270.159-219.003 489.162-489.162 489.162q-16.664 0-33.123-1.11z" fill="#FDAD00"/><path d="M578.699 764.622a85.982 85.982 0 01-10.639 16.89 84.3 84.3 0 01-18.183 16.88 118.566 118.566 0 01-25.719 13.43q-14.637 5.627-33.263 5.627t-32.832-6.058a95.274 95.274 0 01-24.392-14.724 91.296 91.296 0 01-16.406-17.752 100.027 100.027 0 01-8.87-15.166q-.874-2.587-6.21-16.449t-13.3-35.505q-7.966-21.644-17.731-47.631t-20.383-53.7q-23.94-64.09-54.098-143.756-9.701-25.988-18.184-39.882t-18.173-19.057a34.6 34.6 0 00-21.73-3.46 223.12 223.12 0 00-29.706 6.92q-4.441-20.781-.453-38.965a80.84 80.84 0 0115.521-32.907 102.107 102.107 0 0129.319-25.072 143.271 143.271 0 0139.88-15.597q44.345-11.253 74.051 3.471t43.018 48.504q3.546 10.402 15.09 39.882t26.602 69.717q15.09 40.28 32.81 86.607t34.59 90.542l125.034-291.027q9.7-19.919 31.043-27.712a162.587 162.587 0 0143.449-9.518 252.288 252.288 0 0154.971.863q-53.214 124.645-95.78 223.368-17.73 42.48-35.473 83.147t-31.43 73.178q-13.743 32.487-22.636 52.815t-9.755 22.086z" fill="#FFF"/></svg>