<svg class="icon" viewBox="0 0 1024 1024" xmlns="http://www.w3.org/2000/svg" width="200" height="200"><defs><style/></defs><path d="M890.652 13.198H133.348c-72.363 0-130.959 58.71-131.072 131.072v517.575c0 72.25 58.823 131.072 131.072 131.072h400.497L738.987 998.06c8.533 8.533 19.683 12.743 30.947 12.743 11.15 0 22.414-4.21 30.948-12.743 17.066-17.067 17.066-44.715 0-61.782L591.53 726.927c-13.654-13.768-32.2-21.391-51.542-21.391h-406.64c-24.121 0-43.691-19.57-43.691-43.69V144.27c0-24.12 19.57-43.69 43.69-43.69h757.305c24.121 0 43.691 19.57 43.691 43.69v517.575c0 24.121-19.57 43.691-43.69 43.691h-98.987c-24.121 0-43.69 19.57-43.69 43.69s19.569 43.691 43.69 43.691h98.986c72.25 0 131.072-58.823 131.072-131.072V144.27c0-72.249-58.823-131.072-131.072-131.072z" fill="#bfbfbf"/></svg>