<svg width="1024" height="1024" xmlns="http://www.w3.org/2000/svg" class="icon"><defs><style/></defs><path fill="none" id="canvas_background" d="M-1-1h1662v770H-1z"/><g fill="#FFF"><path id="svg_3" d="M384 384c17.408 0 30.72-13.312 30.72-30.72v-30.72H384v30.72-30.72h-30.72v30.72c0 17.408 13.312 30.72 30.72 30.72zm0-102.4v10.24h30.72V281.6c0-17.408-13.312-30.72-30.72-30.72s-30.72 13.312-30.72 30.72v10.24H384V281.6zM650.24 384c17.408 0 30.72-13.312 30.72-30.72v-30.72h-30.72v30.72-30.72h-30.72v30.72c0 17.408 13.312 30.72 30.72 30.72zm0-102.4v10.24h30.72V281.6c0-17.408-13.312-30.72-30.72-30.72s-30.72 13.312-30.72 30.72v10.24h30.72V281.6zM286.72 696.32h450.56V409.6H286.72v286.72zm141.312-138.24c6.144-6.144 15.36-6.144 21.504 0l39.936 39.936 112.64-112.64c6.144-6.144 15.36-6.144 21.504-1.024s6.144 15.36 1.024 21.504l-1.024 1.024-122.88 122.88c-3.072 3.072-7.168 4.096-11.264 4.096-4.096 0-7.168-1.024-10.24-4.096l-51.2-50.176c-6.144-5.12-6.144-15.36 0-21.504z"/><path id="svg_4" d="M716.8 291.84H307.2c-36.864 0-66.56 29.696-66.56 66.56v317.44c0 36.864 29.696 66.56 66.56 66.56h409.6c36.864 0 66.56-29.696 66.56-66.56V358.4c0-36.864-29.696-66.56-66.56-66.56zm35.84 384c0 19.456-16.384 35.84-35.84 35.84H307.2c-19.456 0-35.84-16.384-35.84-35.84V358.4c0-19.456 16.384-35.84 35.84-35.84h409.6c19.456 0 35.84 16.384 35.84 35.84v317.44z"/></g></svg>