<svg width="1024" height="1024" xmlns="http://www.w3.org/2000/svg" class="icon"><defs><style/></defs><path fill="none" id="canvas_background" d="M-1-1h1662v770H-1z"/><g fill="#fff"><path id="svg_1" d="M512 839.893a137.6 137.6 0 01-98.133-40.533l-259.84-260.053a138.88 138.88 0 010-196.054L273.28 224a138.88 138.88 0 01196.053 0l64 64-45.226 45.227-64-64a74.88 74.88 0 00-106.667 0L199.253 388.48a74.88 74.88 0 000 106.667l259.84 258.986a74.88 74.88 0 00105.6 0L683.947 634.88a74.88 74.88 0 000-106.667L559.36 405.333l45.227-45.226 124.8 124.8a138.88 138.88 0 010 196.053L610.133 800.213A137.6 137.6 0 01512 839.893z"/><path id="svg_2" d="M742.613 666.027L697.387 620.8 806.4 512c40.747-40.747 50.347-100.267 21.333-129.92L705.707 260.053c-29.44-29.653-88.96-20.053-129.92 21.334L439.04 418.133l-45.227-45.226 136.32-138.24c66.56-66.56 165.334-75.734 220.374-21.334L872.533 335.36c55.04 55.04 45.654 153.813-21.333 220.373L742.613 666.027z"/><path id="svg_3" d="M497.92 491.733a154.667 154.667 0 01-75.307-22.4A76.16 76.16 0 01378.24 416c-2.987-29.653 21.333-50.56 37.973-65.92a32 32 0 0142.667 48c-5.333 4.693-9.173 8.32-11.733 10.88l7.466 4.48c44.16 24.96 57.174 12.16 62.08 7.253l69.334-69.333a32 32 0 0145.226 45.227L561.92 465.92a87.253 87.253 0 01-64 25.813z"/><path id="svg_4" d="M490.651 703.947q15.085-15.085 30.17 0l62.15 62.15q15.085 15.085 0 30.17-15.085 15.084-30.17 0l-62.15-62.15q-15.085-15.085 0-30.17z"/><path id="svg_5" d="M554.647 640.107q15.085-15.085 30.17 0l62.15 62.15q15.084 15.085 0 30.17-15.085 15.085-30.17 0l-62.15-62.15q-15.085-15.085 0-30.17z"/><path id="svg_6" d="M618.637 576.041q15.085-15.085 30.17 0l62.15 62.15q15.085 15.085 0 30.17t-30.17 0l-62.15-62.15q-15.085-15.085 0-30.17z"/></g></svg>