<svg width="1024" height="1024" xmlns="http://www.w3.org/2000/svg" class="icon"><defs><style/></defs><path fill="none" id="canvas_background" d="M-1-1h1662v770H-1z"/><g fill="#fff"><path id="svg_1" d="M330.711 1021.686a102.4 102.4 0 01-44.626-10.035c-29-13.947-50.196-41.288-58.02-75.305l-18.39-79.77c-7.25-32.358-41.288-75.305-71.415-89.252l-73.625-35.696C33.403 716.554 11.08 689.766 3.83 658.555c-7.25-31.253 1.126-65.27 22.876-92.037l51.323-64.164c20.623-26.214 32.911-79.196 25.661-111.555l-18.432-79.77c-7.782-34.017-.532-67.501 19.538-93.163 20.07-25.088 51.323-39.588 86.467-39.588h82.002c33.464 0 82.534-23.429 103.178-49.643l51.323-64.164c21.75-27.32 52.429-42.947 84.787-42.947 32.358 0 63.037 15.627 84.787 42.947l51.323 64.164c20.644 26.214 69.734 49.643 103.199 49.643h82.002c34.57 0 66.355 14.5 86.446 39.588 20.07 25.109 27.34 59.146 19.538 93.184l-18.432 79.75c-7.23 32.358 5.038 85.34 25.682 111.554l51.322 64.164c21.75 27.32 30.106 60.784 22.856 92.037-7.25 31.232-29 58-60.805 73.073l-73.626 35.696c-30.105 14.5-64.143 56.894-71.393 89.252l-18.411 79.77c-7.803 34.017-29 61.358-58.02 75.305-29 13.926-63.59 13.373-94.823-1.68l-73.625-35.696c-30.106-14.5-84.787-14.5-114.36 0l-73.626 35.696c-17.859 7.803-35.144 11.715-51.876 11.715zm-155.77-773.632c-9.954 0-17.573 2.928-21.669 8.765-4.67 5.284-5.857 14.05-3.502 23.43l19.313 83.68c14.05 60.273-4.69 142.808-43.889 191.386l-53.862 67.277c-5.837 7.619-8.766 15.81-7.004 22.241 1.74 7.025 7.004 12.882 15.79 17.552l77.25 37.478c56.197 26.91 108.278 93.04 122.327 153.334l19.313 83.681c2.335 9.36 7.025 16.384 13.455 19.313 6.452 2.928 14.644 2.334 23.409-1.762l77.25-37.457c56.198-26.911 140.473-26.911 196.076 0l77.25 37.478c8.787 4.096 16.979 4.67 23.41 1.74 6.43-2.928 11.12-9.953 13.455-19.312l19.312-83.681c14.05-60.293 66.724-126.423 122.327-153.354l77.25-37.458c8.787-4.096 14.644-10.527 15.811-17.552 1.762-7.024-1.167-15.216-7.024-22.814L897.126 554.7c-38.604-48.579-57.344-131.093-43.888-191.386l19.333-83.681c2.335-9.36 1.167-17.551-3.523-23.409-4.69-5.263-12.288-8.786-22.241-8.786h-86.016c-62.054 0-138.138-36.864-176.763-85.442L530.166 94.7c-5.837-7.619-13.435-11.715-20.48-11.715-7.004 0-14.623 4.096-20.48 11.715l-53.822 67.297c-38.625 48.578-114.688 85.442-176.742 85.442H174.94v.614z"/><path id="svg_2" d="M472.003 699.31H338.125c-15.114 0-27.464-12.35-27.464-27.443V386.99c0-15.114 12.35-27.464 27.443-27.464h19.927c15.094 0 27.444 12.35 27.444 27.444v239.575h86.507c15.094 0 27.443 12.35 27.443 27.443v17.858c0 15.79-11.673 27.464-27.443 27.464h.02zm173.854 0H631.46c-11.674 0-21.975-6.86-26.092-17.838L501.043 396.595c-2.765-8.253-2.068-17.858 3.42-25.395 4.813-7.578 13.722-11.674 22.651-11.674h21.975c11.674 0 21.955 7.537 26.071 17.838l65.23 181.904 69.324-181.904c4.116-10.301 14.418-17.838 25.395-17.838h21.3c8.908 0 17.817 4.793 22.63 11.674 4.813 7.537 6.185 17.142 2.744 25.395l-110.51 284.877a27.238 27.238 0 01-25.395 17.838h-.02z"/></g></svg>