<svg width="1024" height="1024" xmlns="http://www.w3.org/2000/svg" class="icon"><defs><style/></defs><path fill="none" id="canvas_background" d="M-1-1h1662v770H-1z"/><g fill="#fff"><path id="svg_1" d="M864 821.333H162.133c-78.933 0-140.8-61.866-140.8-138.666V270.933c0-76.8 61.867-140.8 140.8-140.8H864c76.8 0 140.8 61.867 140.8 140.8v411.734c0 76.8-64 138.666-140.8 138.666zM162.133 196.267c-42.666 0-76.8 34.133-76.8 76.8v409.6c0 42.666 34.134 76.8 76.8 76.8H864c42.667 0 76.8-34.134 76.8-76.8V270.933c0-42.666-34.133-76.8-76.8-76.8H162.133v2.134z"/><path id="svg_2" d="M663.467 424.533c-17.067 0-32-14.933-32-32s14.933-32 32-32H972.8c17.067 0 32 14.934 32 32s-14.933 32-32 32H663.467zm6.4 168.534c-17.067 0-32-14.934-32-32s14.933-32 32-32H972.8c17.067 0 32 14.933 32 32s-14.933 32-32 32H669.867z"/><path id="svg_3" d="M669.867 593.067c-64 0-117.334-53.334-117.334-117.334S605.867 358.4 669.867 358.4 787.2 411.733 787.2 475.733s-53.333 117.334-117.333 117.334zm0-168.534c-29.867 0-53.334 23.467-53.334 53.334S640 531.2 669.867 531.2s53.333-23.467 53.333-53.333c-2.133-29.867-25.6-53.334-53.333-53.334z"/></g></svg>