<svg width="1024" height="1024" xmlns="http://www.w3.org/2000/svg" class="icon"><defs><style/></defs><path fill="none" id="canvas_background" d="M-1-1h1662v770H-1z"/><g fill="#FFF"><path id="svg_2" d="M512 558.22a20.387 20.387 0 01-14.367-5.927l-66.591-66.576a20.294 20.294 0 0128.703-28.703l66.575 66.576A20.294 20.294 0 01512 558.22z"/><path id="svg_3" d="M512 558.22a20.294 20.294 0 01-14.367-34.63l66.575-66.576a20.294 20.294 0 0128.704 28.703l-66.56 66.622A20.17 20.17 0 01512 558.22z"/><path id="svg_4" d="M586.473 568.739H437.527a20.294 20.294 0 110-40.603h148.946a20.294 20.294 0 110 40.603zm0 73.154H437.527a20.294 20.294 0 110-40.603h148.946a20.294 20.294 0 110 40.603z"/><path id="svg_5" d="M512 718.352a20.294 20.294 0 01-20.294-20.31v-137.06a20.294 20.294 0 0140.603 0v137.107A20.294 20.294 0 01512 718.352z"/><path id="svg_6" d="M801.978 614.12c0-82.57-64.108-200.89-162.242-261.414 15.795-16.927 24.204-36.74 24.204-57.856 0-59.361-66.715-105.891-151.847-105.891v40.557c60.339 0 111.275 29.928 111.244 65.318 0 21.598-19.115 36.942-30.534 44.126a20.34 20.34 0 002.188 35.53c98.04 46.545 166.415 163.606 166.415 239.615 0 99.22-111.833 179.976-249.39 180.286-137.558-.341-249.391-81.082-249.391-180.286 0-76.024 68.375-193.132 166.415-239.616a20.34 20.34 0 002.188-35.53c-11.404-7.183-30.534-22.527-30.534-44.125 0-35.25 50.471-65.07 110.453-65.318h2.405L512 188.959c-85.178 0-151.847 46.545-151.847 105.89 0 21.117 8.41 40.93 24.204 57.857-98.133 60.509-162.242 178.843-162.242 261.415 0 121.36 129.551 220.16 289.11 220.873h1.737c159.48-.698 289.016-99.576 289.016-220.873zM512.062 229.532zm-.124 0z"/><path id="svg_7" d="M510.945 229.531l.17-40.556h-.946"/></g></svg>